<svg xmlns="http://www.w3.org/2000/svg" viewBox="0 0 1400 1050" font-family="-apple-system, 'Hiragino Sans', 'Yu Gothic', sans-serif">
  <defs>
    <pattern id="paperTexture" patternUnits="userSpaceOnUse" width="100" height="100">
      <rect width="100" height="100" fill="#FBF8F1"/>
      <circle cx="18" cy="28" r="0.4" fill="#C4B389" opacity="0.3"/>
      <circle cx="63" cy="55" r="0.5" fill="#C4B389" opacity="0.3"/>
      <circle cx="42" cy="80" r="0.3" fill="#C4B389" opacity="0.3"/>
      <circle cx="82" cy="15" r="0.4" fill="#C4B389" opacity="0.3"/>
    </pattern>
    <filter id="stickyShadow" x="-10%" y="-10%" width="120%" height="120%">
      <feGaussianBlur in="SourceAlpha" stdDeviation="3"/>
      <feOffset dx="2" dy="3"/>
      <feComponentTransfer><feFuncA type="linear" slope="0.25"/></feComponentTransfer>
      <feMerge><feMergeNode/><feMergeNode in="SourceGraphic"/></feMerge>
    </filter>
    <filter id="softShadow" x="-10%" y="-10%" width="120%" height="120%">
      <feGaussianBlur in="SourceAlpha" stdDeviation="2"/>
      <feOffset dx="1" dy="2"/>
      <feComponentTransfer><feFuncA type="linear" slope="0.18"/></feComponentTransfer>
      <feMerge><feMergeNode/><feMergeNode in="SourceGraphic"/></feMerge>
    </filter>
    <linearGradient id="dangerGrad" x1="0" y1="0" x2="1" y2="0">
      <stop offset="0%" stop-color="#E74C3C"/>
      <stop offset="100%" stop-color="#F97F66"/>
    </linearGradient>
    <linearGradient id="googleGrad" x1="0" y1="0" x2="1" y2="0">
      <stop offset="0%" stop-color="#4285F4"/>
      <stop offset="100%" stop-color="#34A853"/>
    </linearGradient>
    <linearGradient id="barGreen" x1="0" y1="0" x2="1" y2="0">
      <stop offset="0%" stop-color="#5CA46E"/>
      <stop offset="100%" stop-color="#7EC490"/>
    </linearGradient>
    <linearGradient id="barBlue" x1="0" y1="0" x2="1" y2="0">
      <stop offset="0%" stop-color="#4285F4"/>
      <stop offset="100%" stop-color="#7BAAF7"/>
    </linearGradient>
    <linearGradient id="barGray" x1="0" y1="0" x2="1" y2="0">
      <stop offset="0%" stop-color="#8A8A8A"/>
      <stop offset="100%" stop-color="#AAAAAA"/>
    </linearGradient>
  </defs>

  <rect width="1400" height="1050" fill="url(#paperTexture)"/>
  <line x1="118" y1="30" x2="118" y2="1020" stroke="#D88A8A" stroke-width="1.2" opacity="0.4"/>

  <g fill="#E8E2D3" stroke="#C8C0B0" stroke-width="1">
    <circle cx="50" cy="105" r="12"/>
    <circle cx="50" cy="260" r="12"/>
    <circle cx="50" cy="440" r="12"/>
    <circle cx="50" cy="620" r="12"/>
    <circle cx="50" cy="800" r="12"/>
    <circle cx="50" cy="960" r="12"/>
  </g>

  <!-- Category tape: ビジネス -->
  <g transform="translate(1130, 25) rotate(-3)">
    <rect x="0" y="0" width="200" height="38" rx="3" fill="#5CA46E" stroke="#1A1D24" stroke-width="2" opacity="0.88"/>
    <text x="100" y="25" text-anchor="middle" font-size="16" font-weight="700" fill="white" letter-spacing="1">#ビジネス</text>
  </g>

  <rect x="128" y="22" width="180" height="36" rx="4" fill="#2F3842" filter="url(#softShadow)"/>
  <text x="218" y="46" text-anchor="middle" font-size="15" font-weight="700" fill="#F0EDE8">2026-04-24</text>
  <text x="335" y="47" font-size="22" fill="#F5B700">⭐⭐⭐</text>

  <!-- Hero: lightning bolt -->
  <g transform="translate(1240, 78)">
    <polygon points="70,0 30,55 60,55 20,120 90,45 58,45 90,0" fill="#F5B700" stroke="#1A1D24" stroke-width="3"/>
  </g>

  <!-- Title -->
  <text x="128" y="108" font-size="38" font-weight="900" fill="#1A1D24">⚡ Brin のストライクチーム：DeepMind がコーディングで</text>
  <text x="128" y="152" font-size="38" font-weight="900" fill="#E74C3C">Anthropic を追え</text>

  <!-- Sub info -->
  <rect x="128" y="168" width="980" height="34" rx="4" fill="#E8E2D3" stroke="#C8C0B0" stroke-width="1"/>
  <text x="148" y="190" font-size="13" fill="#5A5248">📰 The Information（独占）　　📅 2026-04-24　　🏷️ #ビジネス　　🔗 theinformation.com</text>

  <!-- Key numbers -->
  <rect x="128" y="215" width="790" height="120" rx="6" fill="white" stroke="#1A1D24" stroke-width="2.5" filter="url(#softShadow)"/>
  <text x="148" y="240" font-size="13" font-weight="700" fill="#E74C3C" letter-spacing="2">KEY NUMBERS</text>
  <line x1="148" y1="246" x2="900" y2="246" stroke="#E74C3C" stroke-width="1.5"/>

  <g text-anchor="middle">
    <text x="215" y="285" font-size="38" font-weight="900" fill="#4285F4">2B</text>
    <text x="215" y="310" font-size="12" fill="#5A5248">Google 内部コード行数</text>
    <line x1="320" y1="258" x2="320" y2="320" stroke="#E8E2D3" stroke-width="1.5"/>
    <text x="450" y="285" font-size="36" font-weight="900" fill="#E74C3C">追撃</text>
    <text x="450" y="310" font-size="12" fill="#5A5248">Brin 直接関与の緊急体制</text>
    <line x1="570" y1="258" x2="570" y2="320" stroke="#E8E2D3" stroke-width="1.5"/>
    <text x="690" y="272" font-size="26" font-weight="900" fill="#1A1D24">Claude Code</text>
    <text x="690" y="298" font-size="26" font-weight="900" fill="#E74C3C">首位奪取</text>
    <text x="690" y="315" font-size="11" fill="#5A5248">4月16日、Opus 4.7 Gemini 超え</text>
    <line x1="800" y1="258" x2="800" y2="320" stroke="#E8E2D3" stroke-width="1.5"/>
    <text x="870" y="285" font-size="38" font-weight="900" fill="#1A1D24">精鋭</text>
    <text x="870" y="310" font-size="12" fill="#5A5248">小チーム集中戦略</text>
  </g>

  <!-- Coding benchmark comparison bars -->
  <rect x="128" y="350" width="790" height="280" rx="6" fill="white" stroke="#1A1D24" stroke-width="2.5" filter="url(#softShadow)"/>
  <text x="148" y="375" font-size="13" font-weight="700" fill="#1A1D24" letter-spacing="2">主要コーディングベンチ比較（2026年4月時点）</text>
  <line x1="148" y1="382" x2="900" y2="382" stroke="#1A1D24" stroke-width="1.5"/>

  <!-- Legend -->
  <rect x="148" y="390" width="14" height="12" fill="#5CA46E"/>
  <text x="168" y="401" font-size="11" fill="#2F3842">Claude Opus 4.7</text>
  <rect x="290" y="390" width="14" height="12" fill="#4285F4"/>
  <text x="310" y="401" font-size="11" fill="#2F3842">Gemini 3.1 Pro</text>
  <rect x="432" y="390" width="14" height="12" fill="#8A8A8A"/>
  <text x="452" y="401" font-size="11" fill="#2F3842">GPT-5.4</text>

  <!-- SWE-Bench -->
  <text x="148" y="435" font-size="12" fill="#2F3842" font-weight="600">SWE-Bench Pro</text>
  <rect x="260" y="420" width="314" height="22" rx="3" fill="url(#barGreen)" stroke="#1A1D24" stroke-width="1.5"/>
  <text x="580" y="435" font-size="12" font-weight="700" fill="#2F3842">63.2%</text>
  <rect x="260" y="445" width="262" height="18" rx="3" fill="url(#barBlue)" stroke="#1A1D24" stroke-width="1"/>
  <text x="528" y="459" font-size="11" fill="#4285F4">52.5%</text>
  <rect x="260" y="466" width="288" height="18" rx="3" fill="url(#barGray)" stroke="#1A1D24" stroke-width="1"/>
  <text x="554" y="480" font-size="11" fill="#8A8A8A">57.8%</text>

  <!-- HumanEval+ -->
  <text x="148" y="510" font-size="12" fill="#2F3842" font-weight="600">HumanEval+</text>
  <rect x="260" y="495" width="355" height="22" rx="3" fill="url(#barGreen)" stroke="#1A1D24" stroke-width="1.5"/>
  <text x="621" y="510" font-size="12" font-weight="700" fill="#2F3842">71.1%</text>
  <rect x="260" y="520" width="304" height="18" rx="3" fill="url(#barBlue)" stroke="#1A1D24" stroke-width="1"/>
  <text x="570" y="534" font-size="11" fill="#4285F4">60.8%</text>
  <rect x="260" y="541" width="328" height="18" rx="3" fill="url(#barGray)" stroke="#1A1D24" stroke-width="1"/>
  <text x="594" y="555" font-size="11" fill="#8A8A8A">65.7%</text>

  <!-- Terminal-Bench -->
  <text x="148" y="585" font-size="12" fill="#2F3842" font-weight="600">Terminal-Bench 2.0</text>
  <rect x="260" y="570" width="345" height="22" rx="3" fill="url(#barGreen)" stroke="#1A1D24" stroke-width="1.5"/>
  <text x="611" y="585" font-size="12" font-weight="700" fill="#2F3842">69.2%</text>
  <rect x="260" y="595" width="268" height="18" rx="3" fill="url(#barBlue)" stroke="#1A1D24" stroke-width="1"/>
  <text x="534" y="609" font-size="11" fill="#4285F4">53.7%</text>
  <rect x="260" y="616" width="413" height="18" rx="3" fill="url(#barGray)" stroke="#1A1D24" stroke-width="1"/>
  <text x="679" y="630" font-size="11" fill="#8A8A8A">82.7% (GPT-5.5)</text>

  <!-- Sticky notes -->
  <g transform="translate(938, 215) rotate(-1.5)" filter="url(#stickyShadow)">
    <rect x="0" y="0" width="218" height="148" rx="4" fill="#FFF9C4" stroke="#E8D84A" stroke-width="1.5"/>
    <text x="109" y="24" text-anchor="middle" font-size="13" font-weight="700" fill="#1A1D24">⚡ Brin の役割</text>
    <line x1="15" y1="32" x2="203" y2="32" stroke="#E8D84A" stroke-width="1"/>
    <text x="15" y="52" font-size="11" fill="#2F3842">「毎日コードを書く」宣言。</text>
    <text x="15" y="68" font-size="11" fill="#2F3842">Jobs 型の「創業者参加」で</text>
    <text x="15" y="84" font-size="11" fill="#2F3842">組織的優先度を最大化。</text>
    <text x="15" y="100" font-size="11" fill="#2F3842">「コーディング = AGI への</text>
    <text x="15" y="116" font-size="11" fill="#2F3842">鍵」と社内メモで宣言。</text>
  </g>

  <g transform="translate(938, 378) rotate(1.0)" filter="url(#stickyShadow)">
    <rect x="0" y="0" width="218" height="148" rx="4" fill="#F8BBD0" stroke="#E91E63" stroke-width="1.5"/>
    <text x="109" y="24" text-anchor="middle" font-size="13" font-weight="700" fill="#1A1D24">⚡ 2B行コードの罠</text>
    <line x1="15" y1="32" x2="203" y2="32" stroke="#E91E63" stroke-width="1"/>
    <text x="15" y="52" font-size="11" fill="#2F3842">Google内部コードはBazel・</text>
    <text x="15" y="68" font-size="11" fill="#2F3842">Borg等独自FWが主体。</text>
    <text x="15" y="84" font-size="11" fill="#2F3842">汎用ベンチは OSS 理解力</text>
    <text x="15" y="100" font-size="11" fill="#2F3842">が問われるため、内部データ</text>
    <text x="15" y="116" font-size="11" fill="#2F3842">の優位性は限定的かも。</text>
  </g>

  <g transform="translate(938, 545) rotate(-0.8)" filter="url(#stickyShadow)">
    <rect x="0" y="0" width="218" height="148" rx="4" fill="#C8E6C9" stroke="#4CAF50" stroke-width="1.5"/>
    <text x="109" y="24" text-anchor="middle" font-size="13" font-weight="700" fill="#1A1D24">⚡ Anthropic の強みの本質</text>
    <line x1="15" y1="32" x2="203" y2="32" stroke="#4CAF50" stroke-width="1"/>
    <text x="15" y="52" font-size="11" fill="#2F3842">Constitutional AI + RL の</text>
    <text x="15" y="68" font-size="11" fill="#2F3842">精度がデータ量より重要。</text>
    <text x="15" y="84" font-size="11" fill="#2F3842">エラー自己訂正・ツール</text>
    <text x="15" y="100" font-size="11" fill="#2F3842">連携・長文コンテキストの</text>
    <text x="15" y="116" font-size="11" fill="#2F3842">細部は即座に再現不可。</text>
  </g>

  <g transform="translate(938, 712) rotate(1.3)" filter="url(#stickyShadow)">
    <rect x="0" y="0" width="218" height="148" rx="4" fill="#BBE1FA" stroke="#5B8DEF" stroke-width="1.5"/>
    <text x="109" y="24" text-anchor="middle" font-size="13" font-weight="700" fill="#1A1D24">⚡ Gemini 4 Code 予測</text>
    <line x1="15" y1="32" x2="203" y2="32" stroke="#5B8DEF" stroke-width="1"/>
    <text x="15" y="52" font-size="11" fill="#2F3842">成果は Q3〜Q4 に出現か。</text>
    <text x="15" y="68" font-size="11" fill="#2F3842">「Gemini 4 Code」として</text>
    <text x="15" y="84" font-size="11" fill="#2F3842">SWE-Bench 60%超を目標に</text>
    <text x="15" y="100" font-size="11" fill="#2F3842">すると予測。ただし Claude 5</text>
    <text x="15" y="116" font-size="11" fill="#2F3842">も同時期に登場予定で追撃継続。</text>
  </g>

  <!-- Strike team org chart -->
  <rect x="128" y="648" width="790" height="170" rx="6" fill="white" stroke="#1A1D24" stroke-width="2.5" filter="url(#softShadow)"/>
  <text x="148" y="672" font-size="13" font-weight="700" fill="#1A1D24" letter-spacing="2">ストライクチーム 組織図</text>
  <line x1="148" y1="679" x2="900" y2="679" stroke="#1A1D24" stroke-width="1.5"/>

  <!-- Brin -->
  <rect x="330" y="688" width="160" height="48" rx="6" fill="#F5B700" stroke="#1A1D24" stroke-width="2.5"/>
  <text x="410" y="710" text-anchor="middle" font-size="14" font-weight="900" fill="#1A1D24">Sergey Brin</text>
  <text x="410" y="728" text-anchor="middle" font-size="11" fill="#2F3842">Google 共同創業者</text>

  <!-- Lines down -->
  <line x1="410" y1="736" x2="410" y2="755" stroke="#1A1D24" stroke-width="2"/>
  <line x1="230" y1="755" x2="600" y2="755" stroke="#1A1D24" stroke-width="2"/>

  <!-- Borgeaud -->
  <rect x="145" y="760" width="175" height="48" rx="5" fill="#E8E2D3" stroke="#1A1D24" stroke-width="2"/>
  <text x="232" y="782" text-anchor="middle" font-size="13" font-weight="700" fill="#1A1D24">Sebastian Borgeaud</text>
  <text x="232" y="799" text-anchor="middle" font-size="11" fill="#5A5248">チームリード / Gemini 出身</text>

  <!-- Kavukcuoglu -->
  <rect x="345" y="760" width="170" height="48" rx="5" fill="#E8E2D3" stroke="#1A1D24" stroke-width="2"/>
  <text x="430" y="782" text-anchor="middle" font-size="13" font-weight="700" fill="#1A1D24">Koray Kavukcuoglu</text>
  <text x="430" y="799" text-anchor="middle" font-size="11" fill="#5A5248">Google CTO / DeepMind 副社長</text>

  <!-- Researchers -->
  <rect x="540" y="760" width="180" height="48" rx="5" fill="#E8F4EA" stroke="#5CA46E" stroke-width="2"/>
  <text x="630" y="782" text-anchor="middle" font-size="13" font-weight="700" fill="#1A1D24">精鋭エンジニア群</text>
  <text x="630" y="799" text-anchor="middle" font-size="11" fill="#5A5248">2B 行コードベース + RL 特化</text>

  <line x1="232" y1="755" x2="232" y2="760" stroke="#1A1D24" stroke-width="1.5"/>
  <line x1="430" y1="755" x2="430" y2="760" stroke="#1A1D24" stroke-width="1.5"/>
  <line x1="600" y1="755" x2="600" y2="760" stroke="#1A1D24" stroke-width="1.5"/>

  <!-- Footer -->
  <line x1="128" y1="848" x2="1340" y2="848" stroke="#C8C0B0" stroke-width="1"/>
  <text x="128" y="868" font-size="12" fill="#8A8A8A" font-style="italic">AI News · 2026-04-24 · Sergey Brin Forms DeepMind Strike Team to Close Anthropic Coding Gap</text>
</svg>
